<svg xmlns="http://www.w3.org/2000/svg" width="89" height="89" viewBox="0 0 89 89">
  <g id="instagram" transform="translate(-32 -32)">
    <path id="Path_11" data-name="Path 11" d="M95.041,39.416a18.6,18.6,0,0,1,18.543,18.543V95.041a18.6,18.6,0,0,1-18.543,18.543H57.959A18.6,18.6,0,0,1,39.416,95.041V57.959A18.6,18.6,0,0,1,57.959,39.416H95.041m0-7.416H57.959A26.035,26.035,0,0,0,32,57.959V95.041A26.035,26.035,0,0,0,57.959,121H95.041A26.035,26.035,0,0,0,121,95.041V57.959A26.035,26.035,0,0,0,95.041,32Z" fill="#707070"/>
    <path id="Path_12" data-name="Path 12" d="M190.354,117.795a5.551,5.551,0,1,1,3.937-1.626A5.563,5.563,0,0,1,190.354,117.795Zm-24.1,3.707a14.834,14.834,0,1,1-14.834,14.834A14.834,14.834,0,0,1,166.25,121.5m0-7.416a22.25,22.25,0,1,0,22.25,22.25A22.25,22.25,0,0,0,166.25,114.086Z" transform="translate(-89.75 -59.836)" fill="#707070"/>
  </g>
</svg>
