<svg xmlns="http://www.w3.org/2000/svg" width="25" height="25" viewBox="0 0 25 25">
  <defs>
    <style>
      .cls-1 {
        fill: #2b81d1;
      }
    </style>
  </defs>
  <path id="Subtraction_1" data-name="Subtraction 1" class="cls-1" d="M-4510.5-6514a12.418,12.418,0,0,1-8.839-3.661A12.417,12.417,0,0,1-4523-6526.5a12.416,12.416,0,0,1,3.661-8.838A12.417,12.417,0,0,1-4510.5-6539a12.417,12.417,0,0,1,8.839,3.662A12.42,12.42,0,0,1-4498-6526.5a12.418,12.418,0,0,1-3.661,8.839A12.418,12.418,0,0,1-4510.5-6514Zm.465-19-4.029,4.173v7.419h6.768a1.056,1.056,0,0,0,.63-.217,1.275,1.275,0,0,0,.427-.521l1.682-3.885a1.589,1.589,0,0,0,.108-.369,2.137,2.137,0,0,0,.036-.369v-1.188a.835.835,0,0,0-.267-.6.839.839,0,0,0-.6-.268h-4.666l.651-3.059v-.145a.991.991,0,0,0-.051-.333.55.55,0,0,0-.21-.261Zm-6.55,4.173v7.419h1.651v-7.419Z" transform="translate(4523 6539)"/>
</svg>
